<svg width="310" height="310" viewBox="0 0 310 310" fill="none" xmlns="http://www.w3.org/2000/svg">
<g clip-path="url(#clip0_5391_989)">
<path d="M85.0397 88.6121L150.252 76.1625M123.005 64.152L255.499 51.4637L266.809 52.0844L154.57 69.7224L123.005 64.152ZM118.017 63.1613C117.93 63.1696 117.849 63.193 117.773 63.2287L117.357 63.1551L83.7378 86.5418L81.4596 115.247L43.3427 126.035L43.3499 126.143L10.6542 149.393L7 195.436L34.0409 231.248L70.5827 236.364L102.488 213.521C102.519 213.504 102.551 213.484 102.581 213.462L141.081 184.76L137.819 219.553L164.86 255.365L201.403 260.481L233.559 237.825L233.622 237.165L302.157 111.759C302.216 111.661 302.251 111.547 302.257 111.425L303 95.5374L293.458 82.8148L280.503 80.1351L282.559 63.9508L272.077 50.9096L255.537 50.0019C255.497 49.999 255.456 49.9994 255.415 50.0034L118.017 63.1613ZM203.346 257.324L231.955 237.166L232.195 236.728L235.157 205.63L203.346 257.324ZM235.388 202.465C235.413 202.426 235.44 202.39 235.469 202.357L236.435 192.207L227.338 180.077L166.719 254.149L200.659 258.9L235.388 202.465ZM300.804 111.189L301.428 97.8658L237.838 192.893L233.974 233.475L300.804 111.189ZM165.322 253.549L139.598 219.482C139.663 219.451 139.725 219.41 139.78 219.358L206.203 157.313L210.819 158.052L226.435 178.873L165.322 253.549ZM139.466 217.65L204.376 157.02L175.426 152.389L143.61 173.601L142.936 183.031C142.921 183.244 142.821 183.442 142.66 183.581L139.466 217.65ZM301.202 95.5759L237.352 190.992L212.438 157.774L292.887 84.4888L301.202 95.5759ZM291.386 83.8787L280.142 81.5531L175.976 150.997L211.473 156.677L291.386 83.8787ZM278.873 80.6425L175.976 149.239L180.092 106.028L280.861 65.7212L279.012 80.2619C278.953 80.3442 278.909 80.4406 278.887 80.5471C278.88 80.579 278.875 80.6108 278.873 80.6425ZM280.845 64.1528L271.654 52.7157L271.667 52.8005L155.584 71.0427L179.979 104.499L280.845 64.1528ZM117.696 64.6993L86.9812 86.0661L155.71 73.6951L153.795 71.0697L117.696 64.6993ZM82.9595 114.822L85.097 87.8904L156.666 75.0079L173.464 98.0452L81.6731 131.031L81.8349 128.994L83.098 114.783L82.9595 114.822ZM82.0047 132.466L174.361 99.2759L178.701 105.226L176.48 128.538L107.422 166.357L82.0047 132.466ZM108.967 167.178L143.296 171.984L174.432 150.048L176.313 130.295L108.967 167.178ZM43.9056 127.542L80.5306 133.176L84.638 138.616L12.397 149.948L43.9056 127.542ZM106.338 167.355L101.264 160.635L8.7499 195.328L34.6522 229.631L103.843 189.991L106.338 167.355ZM103.645 191.789L36.6985 230.143L70.2068 234.835L101.32 212.56L102.8 199.453L103.645 191.789ZM85.6369 139.939L100.346 159.419L8.59409 193.826L11.9536 151.497L85.6369 139.939ZM141.265 182.8L102.959 211.357L104.253 199.613L107.766 168.494L142.146 173.406L141.265 182.8ZM47.0255 126.511L81.3362 116.8L80.3783 128.871L80.155 131.384L47.0255 126.511Z" stroke="#061F35" stroke-width="2"/>
</g>
<defs>
<clipPath id="clip0_5391_989">
<rect width="310" height="310" fill="white"/>
</clipPath>
</defs>
</svg>
