<svg width="310" height="310" viewBox="0 0 310 310" fill="none" xmlns="http://www.w3.org/2000/svg">
<circle cx="155" cy="155" r="155" fill="#2F2F2F"/>
<path fill-rule="evenodd" clip-rule="evenodd" d="M123.055 76.3516C123.12 76.321 123.19 76.3009 123.265 76.2938L241.167 65.0029C241.202 64.9995 241.237 64.9991 241.272 65.0016L255.465 65.7805L264.459 76.9713L262.695 90.8592L273.812 93.1586L282 104.076L281.362 117.709C281.357 117.814 281.327 117.912 281.277 117.996L222.466 225.608L222.412 226.174L194.819 245.615L163.461 241.225L140.257 210.495L143.056 180.639L110.019 205.268C109.993 205.287 109.966 205.304 109.939 205.319L82.5608 224.92L51.204 220.53L28 189.8L31.1357 150.29L59.1921 130.339L59.186 130.246L91.8944 120.989L93.8493 96.3568L122.698 76.2885L123.055 76.3516ZM241.239 66.256L127.545 77.1439L154.631 81.9239L250.944 66.7886L241.239 66.256ZM196.486 242.906L221.036 225.609L221.242 225.233L223.783 198.547L196.486 242.906ZM224.051 195.739C224.026 195.767 224.003 195.798 223.982 195.831L194.18 244.259L165.056 240.182L217.074 176.62L224.88 187.029L224.051 195.739ZM280.651 106.074L280.116 117.507L222.768 222.441L226.084 187.618L280.651 106.074ZM141.783 210.434L163.857 239.667L216.299 175.587L202.899 157.72L198.938 157.086L141.94 210.327C141.892 210.372 141.839 210.407 141.783 210.434ZM197.37 156.835L141.67 208.862L144.411 179.627C144.549 179.508 144.635 179.338 144.648 179.155L145.226 171.063L172.528 152.861L197.37 156.835ZM225.667 185.986L280.457 104.109L273.322 94.5951L204.288 157.482L225.667 185.986ZM262.385 92.076L272.034 94.0716L203.46 156.54L173 151.666L262.385 92.076ZM173 150.158L261.296 91.2946C261.298 91.2674 261.302 91.2401 261.308 91.2127C261.327 91.1213 261.365 91.0386 261.416 90.968L263.002 78.4905L176.532 113.078L173 150.158ZM255.102 67.3304L262.989 77.1446L176.435 111.766L155.501 83.0569L255.113 67.4031L255.102 67.3304ZM96.6325 95.9486L122.989 77.6136L153.966 83.0801L155.609 85.3329L96.6325 95.9486ZM95.0157 97.514L93.1815 120.624L93.3003 120.591L92.2164 132.785L92.0776 134.533L170.844 106.228L156.43 86.4595L95.0157 97.514ZM171.614 107.284L92.3621 135.765L114.173 164.847L173.432 132.394L175.338 112.39L171.614 107.284ZM144.957 169.675L115.499 165.551L173.289 133.902L171.675 150.852L144.957 169.675ZM91.0972 136.374L59.669 131.539L32.6312 150.766L94.6218 141.042L91.0972 136.374ZM108.889 159.937L113.243 165.703L111.102 185.127L51.7286 219.143L29.5016 189.707L108.889 159.937ZM53.4845 219.582L110.932 186.67L110.207 193.247L108.937 204.494L82.2383 223.608L53.4845 219.582ZM108.101 158.893L95.479 142.177L32.2507 152.095L29.3679 188.418L108.101 158.893ZM110.343 203.462L143.214 178.957L143.97 170.896L114.468 166.681L111.454 193.384L110.343 203.462ZM91.7885 122.322L62.3462 130.655L90.7749 134.836L90.9665 132.68L91.7885 122.322Z" fill="white"/>
<path d="M94.9665 98.1333L150.926 87.4502M127.545 77.1439L241.239 66.256L250.944 66.7886L154.631 81.9239L127.545 77.1439ZM123.265 76.2938C123.19 76.3009 123.12 76.321 123.055 76.3516L122.698 76.2885L93.8493 96.3568L91.8944 120.989L59.186 130.246L59.1921 130.339L31.1357 150.29L28 189.8L51.204 220.53L82.5608 224.92L109.939 205.319C109.966 205.304 109.993 205.287 110.019 205.268L143.056 180.639L140.257 210.495L163.461 241.225L194.819 245.615L222.412 226.174L222.466 225.608L281.277 117.996C281.327 117.912 281.357 117.814 281.362 117.709L282 104.076L273.812 93.1586L262.695 90.8592L264.459 76.9713L255.465 65.7805L241.272 65.0016C241.237 64.9991 241.202 64.9995 241.167 65.0029L123.265 76.2938ZM196.486 242.906L221.036 225.609L221.242 225.233L223.783 198.547L196.486 242.906ZM223.982 195.831C224.003 195.798 224.026 195.767 224.051 195.739L224.88 187.029L217.074 176.62L165.056 240.182L194.18 244.259L223.982 195.831ZM280.116 117.507L280.651 106.074L226.084 187.618L222.768 222.441L280.116 117.507ZM163.857 239.667L141.783 210.434C141.839 210.407 141.892 210.372 141.94 210.327L198.938 157.086L202.899 157.72L216.299 175.587L163.857 239.667ZM141.67 208.862L197.37 156.835L172.528 152.861L145.226 171.063L144.648 179.155C144.635 179.338 144.549 179.508 144.411 179.627L141.67 208.862ZM280.457 104.109L225.667 185.986L204.288 157.482L273.322 94.5951L280.457 104.109ZM272.034 94.0716L262.385 92.076L173 151.666L203.46 156.54L272.034 94.0716ZM261.296 91.2946L173 150.158L176.532 113.078L263.002 78.4905L261.416 90.968C261.365 91.0386 261.327 91.1213 261.308 91.2127C261.302 91.2401 261.298 91.2674 261.296 91.2946ZM262.989 77.1446L255.102 67.3304L255.113 67.4031L155.501 83.0569L176.435 111.766L262.989 77.1446ZM122.989 77.6136L96.6325 95.9486L155.609 85.3329L153.966 83.0801L122.989 77.6136ZM93.1815 120.624L95.0157 97.514L156.43 86.4595L170.844 106.228L92.0776 134.533L92.2164 132.785L93.3003 120.591L93.1815 120.624ZM92.3621 135.765L171.614 107.284L175.338 112.39L173.432 132.394L114.173 164.847L92.3621 135.765ZM115.499 165.551L144.957 169.675L171.675 150.852L173.289 133.902L115.499 165.551ZM59.669 131.539L91.0972 136.374L94.6218 141.042L32.6312 150.766L59.669 131.539ZM113.243 165.703L108.889 159.937L29.5016 189.707L51.7286 219.143L111.102 185.127L113.243 165.703ZM110.932 186.67L53.4845 219.582L82.2383 223.608L108.937 204.494L110.207 193.247L110.932 186.67ZM95.479 142.177L108.101 158.893L29.3679 188.418L32.2507 152.095L95.479 142.177ZM143.214 178.957L110.343 203.462L111.454 193.384L114.468 166.681L143.97 170.896L143.214 178.957ZM62.3462 130.655L91.7885 122.322L90.9665 132.68L90.7749 134.836L62.3462 130.655Z" stroke="white" stroke-width="2"/>
</svg>
